<svg width="98" height="93" viewBox="0 0 98 93" fill="none" xmlns="http://www.w3.org/2000/svg">
<path d="M51.1673 92.9556C51.4912 92.9556 51.8151 92.9313 52.1349 92.911L52.6369 92.8787C52.9473 92.8598 53.2591 92.8354 53.5722 92.8058L54.0499 92.7653C54.4062 92.7288 54.7665 92.6924 55.1228 92.6479L55.3778 92.6195H55.4102C59.8197 92.0689 64.1319 90.9108 68.224 89.1782L60.7706 79.6155L57.7341 75.7208C56.1401 76.145 54.5159 76.4468 52.8758 76.6236L52.4467 76.6722C52.2402 76.6722 52.0418 76.7045 51.8191 76.7207L51.4143 76.7531C51.1835 76.7531 50.9487 76.7774 50.7139 76.7896H50.3697C50.0216 76.7896 49.6693 76.7896 49.3171 76.7896C44.0128 76.7853 38.7904 75.4806 34.1074 72.9898C29.4243 70.499 25.4233 66.898 22.4548 62.5021C20.6888 59.8956 19.3164 57.0431 18.3819 54.0365C16.6228 48.3996 16.4407 42.3886 17.8552 36.6555C19.2697 30.9224 22.227 25.686 26.4062 21.5143L14.9487 10.077C10.4363 14.5842 6.85652 19.9367 4.41412 25.8283C1.97172 31.7199 0.7146 38.0353 0.7146 44.4131C0.7146 50.7909 1.97172 57.1062 4.41412 62.9978C6.85652 68.8895 10.4363 74.2419 14.9487 78.7491C17.153 80.9537 19.562 82.9438 22.143 84.6924C24.1217 86.0293 26.1962 87.2187 28.3495 88.2511C34.8935 91.3837 42.0579 93.0053 49.3131 92.9961C49.7867 92.9961 50.2523 92.9961 50.722 92.9961L51.1673 92.9556Z" fill="#564AA9"/>
<path d="M94.0742 25.4981C91.6307 19.7369 88.0994 14.501 83.6734 10.077L72.224 21.5264C73.6888 22.9922 75.0118 24.5931 76.1754 26.3078C77.9307 28.9185 79.2946 31.7719 80.224 34.7774C81.1632 37.7936 81.977 42.6074 81.5883 46.7208H49.224V62.9151H56.1673C56.5596 62.9782 56.9562 63.0107 57.3535 63.0122H94.1956C96.6596 57.1221 97.9178 50.7978 97.8961 44.4131C97.9018 37.9158 96.6021 31.4835 94.0742 25.4981Z" fill="#564AA9"/>
<path d="M83.6734 10.0811C79.7819 6.1717 75.2494 2.95789 70.2726 0.579076L57.722 13.1297L49.3171 21.5386L40.9001 13.1135L28.3495 0.562866C23.3757 2.95199 18.8442 6.1692 14.9487 10.077C10.2199 14.2673 6.44666 21.5183 6.44666 21.5183C15.5195 12.4455 23.7463 18.988 25.8799 20.992L26.3697 21.4819L26.4062 21.5264L49.3171 44.4374L72.228 21.5264L72.2523 21.4981L72.7746 20.9758C74.9203 18.9515 83.1268 12.4738 92.1754 21.5183C92.1713 21.5224 88.4021 14.2714 83.6734 10.0811Z" fill="#6C5DD3"/>
</svg>
